<svg width="1567" height="1332" viewBox="0 0 1567 1332" fill="none" xmlns="http://www.w3.org/2000/svg">
<mask id="mask0_478_421" style="mask-type:alpha" maskUnits="userSpaceOnUse" x="0" y="0" width="1567" height="1332">
<rect width="1567" height="1332" fill="url(#paint0_radial_478_421)"/>
</mask>
<g mask="url(#mask0_478_421)">
<g style="mix-blend-mode:overlay">
<path d="M1133.81 806.22C1124.11 818.155 1108.55 823.75 1091.12 828.385C1087.44 829.364 1083.68 830.299 1079.88 831.243C1065.79 834.747 1051.17 838.381 1038.33 844.827C1021.93 853.055 1008.33 865.896 1002.05 888.895C995.779 911.821 996.805 944.746 1009.36 993.117C1021.85 1041.26 1018.07 1078.24 1004.09 1105.16C990.119 1132.07 965.881 1149.07 937.158 1157.09C879.648 1173.16 804.353 1153.21 758.485 1105.11C695.758 1039.34 622.889 1013.9 560.708 992.188C551.249 988.886 542.036 985.669 533.145 982.41C499.431 970.054 470.404 957.118 449.788 936.659C429.225 916.252 416.945 888.267 416.945 845.603C416.945 760.454 479.61 714.909 553.987 668.29C560.23 664.377 566.555 660.457 572.929 656.506C642.354 613.475 717.731 566.755 758.655 485.093C780.837 440.829 828.837 415.851 878.604 422.942C928.33 430.027 980.028 469.18 1009.38 553.623C1037.41 634.282 1079.33 680.417 1109.65 713.791C1111.24 715.551 1112.81 717.276 1114.34 718.968C1129.66 735.9 1141.21 749.443 1145.62 762.901C1147.8 769.585 1148.22 776.24 1146.42 783.285C1144.63 790.346 1140.6 797.858 1133.81 806.22Z" stroke="white" stroke-width="2"/>
</g>
<g style="mix-blend-mode:overlay">
<path d="M1173.86 807.959C1163.04 821.28 1145.69 827.517 1126.29 832.678C1122.19 833.768 1118 834.81 1113.77 835.863C1098.09 839.764 1081.84 843.806 1067.55 850.977C1049.33 860.127 1034.22 874.402 1027.23 899.974C1020.26 925.474 1021.4 962.112 1035.36 1015.96C1049.27 1069.59 1045.07 1110.8 1029.49 1140.81C1013.93 1170.8 986.919 1189.74 954.925 1198.68C890.872 1216.59 807.023 1194.36 755.942 1140.78C686.145 1067.56 605.066 1039.24 535.855 1015.07C525.326 1011.39 515.071 1007.81 505.172 1004.18C467.647 990.419 435.317 976.009 412.352 953.209C389.439 930.461 375.762 899.27 375.762 851.74C375.762 756.858 445.571 706.115 528.35 654.209C535.298 649.852 542.336 645.488 549.431 641.089C626.707 593.173 710.577 541.168 756.112 450.269C780.824 400.937 834.298 373.102 889.737 381.004C945.137 388.9 1002.71 432.534 1035.39 526.589C1066.58 616.378 1113.22 667.734 1146.96 704.894C1148.74 706.854 1150.49 708.774 1152.19 710.659C1169.23 729.507 1182.12 744.605 1187.02 759.617C1189.46 767.079 1189.93 774.511 1187.92 782.378C1185.92 790.262 1181.43 798.641 1173.86 807.959Z" stroke="white" stroke-width="2"/>
</g>
<g style="mix-blend-mode:overlay">
<path d="M1214.46 809.668C1202.5 824.408 1183.33 831.303 1161.92 837.003C1157.39 838.208 1152.76 839.36 1148.09 840.522C1130.79 844.83 1112.87 849.291 1097.11 857.205C1077.02 867.3 1060.37 883.044 1052.67 911.253C1044.99 939.389 1046.23 979.832 1061.65 1039.3C1077 1098.54 1072.36 1144.08 1055.16 1177.25C1037.97 1210.41 1008.14 1231.34 972.808 1241.23C902.085 1261.01 809.516 1236.45 753.12 1177.24C676.115 1096.4 586.666 1065.13 510.29 1038.44C498.67 1034.37 487.352 1030.42 476.426 1026.41C435.016 1011.21 399.319 995.291 373.959 970.093C348.651 944.947 333.55 910.47 333.55 857.954C333.55 753.101 410.641 697.031 501.984 639.709C509.651 634.898 517.418 630.078 525.246 625.22C610.526 572.298 703.055 514.878 753.29 414.516C780.582 359.992 839.635 329.228 900.858 337.961C962.04 346.689 1025.6 394.914 1061.67 498.817C1096.09 597.962 1147.54 654.667 1184.78 695.706C1186.74 697.87 1188.67 699.991 1190.55 702.071C1209.35 722.884 1223.58 739.575 1229.01 756.18C1231.71 764.438 1232.22 772.666 1230 781.376C1227.79 790.102 1222.82 799.369 1214.46 809.668Z" stroke="white" stroke-width="2"/>
</g>
<g style="mix-blend-mode:overlay">
<path d="M1262 811.639C1248.7 828.018 1227.38 835.671 1203.62 841.993C1198.6 843.331 1193.46 844.609 1188.27 845.899C1169.07 850.676 1149.19 855.619 1131.72 864.392C1109.45 875.576 1090.99 893.015 1082.45 924.266C1073.93 955.445 1075.32 1000.28 1092.42 1066.23C1109.46 1131.94 1104.32 1182.49 1085.21 1219.3C1066.11 1256.11 1032.98 1279.35 993.745 1290.31C915.213 1312.27 812.435 1285.01 749.817 1219.32C664.373 1129.68 565.126 1095.01 480.36 1065.4C467.463 1060.89 454.9 1056.5 442.773 1052.06C396.813 1035.2 357.175 1017.54 329.011 989.574C300.898 961.661 284.131 923.393 284.131 865.124C284.131 748.766 369.747 686.55 471.117 622.979C479.626 617.643 488.245 612.298 496.932 606.911C591.583 548.212 694.248 484.545 749.987 373.262C780.298 312.748 845.884 278.605 913.877 288.297C981.83 297.984 1052.4 351.507 1092.44 466.774C1130.63 576.713 1187.73 639.59 1229.05 685.105C1231.23 687.504 1233.37 689.856 1235.45 692.163C1256.32 715.242 1272.13 733.772 1278.16 752.214C1281.16 761.391 1281.73 770.538 1279.27 780.219C1276.8 789.917 1271.28 800.209 1262 811.639Z" stroke="white" stroke-width="2"/>
</g>
<g style="mix-blend-mode:overlay">
<path d="M1325.38 814.268C1310.3 832.831 1286.13 841.496 1259.23 848.647C1253.54 850.162 1247.72 851.608 1241.85 853.067C1220.11 858.471 1197.63 864.058 1177.87 873.973C1152.69 886.61 1131.82 906.309 1122.17 941.618C1112.53 976.854 1114.09 1027.54 1133.45 1102.13C1152.74 1176.49 1146.93 1233.69 1125.28 1275.38C1103.64 1317.05 1066.1 1343.35 1021.66 1355.76C932.716 1380.61 816.325 1349.76 745.412 1275.42C648.717 1174.05 536.405 1134.85 440.453 1101.35C425.852 1096.25 411.631 1091.29 397.901 1086.26C345.875 1067.19 300.983 1047.2 269.079 1015.55C237.228 983.946 218.239 940.624 218.239 874.685C218.239 742.986 315.221 672.576 429.961 600.672C439.592 594.636 449.348 588.591 459.179 582.498C566.325 516.098 682.506 444.1 745.583 318.258C779.918 249.757 854.214 211.108 931.236 222.079C1008.22 233.045 1088.13 293.631 1133.47 424.049C1176.69 548.381 1241.3 619.488 1288.08 670.97C1290.55 673.684 1292.96 676.343 1295.33 678.953C1318.94 705.052 1336.86 726.034 1343.7 746.926C1347.1 757.328 1347.75 767.7 1344.95 778.677C1342.15 789.67 1335.89 801.329 1325.38 814.268Z" stroke="white" stroke-width="2"/>
</g>
<g style="mix-blend-mode:overlay">
<path d="M1390.74 816.984C1373.82 837.805 1346.71 847.515 1316.58 855.522C1310.19 857.22 1303.67 858.84 1297.09 860.475C1272.74 866.526 1247.58 872.778 1225.46 883.874C1197.27 898.013 1173.92 920.047 1163.12 959.547C1152.33 998.976 1154.07 1055.71 1175.76 1139.23C1197.38 1222.51 1190.86 1286.61 1166.6 1333.32C1142.34 1380.02 1100.25 1409.49 1050.45 1423.39C950.767 1451.23 820.338 1416.67 740.87 1333.4C632.572 1219.9 506.786 1176.01 399.299 1138.5C382.942 1132.79 367.01 1127.23 351.627 1121.6C293.346 1100.25 243.034 1077.86 207.275 1042.39C171.569 1006.97 150.287 958.429 150.287 884.565C150.287 737.014 258.991 658.136 387.519 577.621C398.308 570.863 409.235 564.093 420.248 557.271C540.278 482.913 670.397 402.307 741.04 261.42C779.527 184.665 862.806 141.36 949.137 153.653C1035.43 165.94 1124.98 233.826 1175.78 379.9C1224.19 519.104 1296.55 598.715 1348.95 656.363C1351.72 659.402 1354.42 662.38 1357.07 665.302C1383.52 694.523 1403.61 718.037 1411.28 741.462C1415.1 753.13 1415.83 764.767 1412.69 777.083C1409.55 789.415 1402.52 802.486 1390.74 816.984Z" stroke="white" stroke-width="2"/>
</g>
<g style="mix-blend-mode:overlay">
<path d="M1454.12 819.613C1435.42 842.618 1405.45 853.34 1372.19 862.176C1365.13 864.05 1357.93 865.839 1350.67 867.644C1323.78 874.321 1296.02 881.216 1271.61 893.456C1240.51 909.047 1214.75 933.342 1202.83 976.899C1190.93 1020.38 1192.85 1082.97 1216.78 1175.13C1240.66 1267.06 1233.47 1337.81 1206.66 1389.39C1179.86 1440.95 1133.38 1473.49 1078.36 1488.84C968.27 1519.57 824.228 1481.43 736.465 1389.5C616.916 1264.28 478.065 1215.84 359.392 1174.45C341.333 1168.15 323.741 1162.02 306.755 1155.8C242.409 1132.24 186.842 1107.52 147.344 1068.36C107.899 1029.26 84.3949 975.66 84.3949 894.125C84.3949 731.234 204.466 644.162 346.363 555.314C358.274 547.856 370.338 540.386 382.495 532.858C515.021 450.799 658.654 361.862 736.636 206.416C779.148 121.674 871.136 73.8623 966.496 87.4345C1061.82 101.001 1160.71 175.951 1216.81 337.175C1270.25 490.772 1350.13 578.612 1407.98 642.227C1411.03 645.58 1414.02 648.867 1416.94 652.092C1446.14 684.334 1468.34 710.299 1476.82 736.174C1481.04 749.067 1481.84 761.929 1478.37 775.541C1474.9 789.169 1467.13 803.607 1454.12 819.613Z" stroke="white" stroke-width="2"/>
</g>
<g style="mix-blend-mode:overlay">
<path d="M1534.34 822.943C1513.37 848.715 1479.8 860.718 1442.57 870.604C1434.67 872.702 1426.6 874.704 1418.47 876.724C1388.38 884.194 1357.32 891.905 1330.01 905.593C1295.23 923.025 1266.42 950.181 1253.09 998.877C1239.78 1047.5 1241.92 1117.5 1268.71 1220.61C1295.44 1323.48 1287.39 1402.67 1257.37 1460.41C1227.36 1518.14 1175.29 1554.56 1113.69 1571.75C990.423 1606.14 829.153 1563.45 730.891 1460.56C597.101 1320.48 441.715 1266.3 308.885 1219.99C288.67 1212.94 268.978 1206.07 249.964 1199.12C177.942 1172.76 115.724 1145.1 71.4939 1101.27C27.3167 1057.49 1 997.486 1 906.235C1 723.913 135.457 626.461 294.275 527.058C307.606 518.714 321.109 510.357 334.715 501.935C483.054 410.121 643.793 310.631 731.061 136.743C778.668 41.884 881.68 -11.6347 988.466 3.55754C1095.21 18.744 1205.93 102.641 1268.73 283.057C1328.54 454.884 1417.94 553.148 1482.69 624.322C1486.11 628.074 1489.45 631.75 1492.72 635.358C1525.39 671.427 1550.27 700.497 1559.76 729.476C1564.49 743.921 1565.39 758.334 1561.51 773.587C1557.61 788.857 1548.91 805.025 1534.34 822.943Z" stroke="white" stroke-width="2"/>
</g>
</g>
<defs>
<radialGradient id="paint0_radial_478_421" cx="0" cy="0" r="1" gradientUnits="userSpaceOnUse" gradientTransform="translate(783.5 787.796) rotate(90) scale(473.895 530.227)">
<stop offset="0.615768" stop-color="#DADADA"/>
<stop offset="1" stop-color="#D9D9D9" stop-opacity="0"/>
<stop offset="1" stop-color="#D9D9D9" stop-opacity="0"/>
</radialGradient>
</defs>
</svg>
