<svg width="46" height="46" viewBox="0 0 46 46" fill="none" xmlns="http://www.w3.org/2000/svg">
<path d="M30.27 16.33C28.94 15.71 27.5 15.26 26 15C25.9868 14.9996 25.9738 15.0021 25.9617 15.0073C25.9496 15.0125 25.9388 15.0202 25.93 15.03C25.75 15.36 25.54 15.79 25.4 16.12C23.809 15.88 22.191 15.88 20.6 16.12C20.46 15.78 20.25 15.36 20.06 15.03C20.05 15.01 20.02 15 19.99 15C18.49 15.26 17.06 15.71 15.72 16.33C15.71 16.33 15.7 16.34 15.69 16.35C12.97 20.42 12.22 24.38 12.59 28.3C12.59 28.32 12.6 28.34 12.62 28.35C14.42 29.67 16.15 30.47 17.86 31C17.89 31.01 17.92 31 17.93 30.98C18.33 30.43 18.69 29.85 19 29.24C19.02 29.2 19 29.16 18.96 29.15C18.39 28.93 17.85 28.67 17.32 28.37C17.28 28.35 17.28 28.29 17.31 28.26C17.42 28.18 17.53 28.09 17.64 28.01C17.66 27.99 17.69 27.99 17.71 28C21.15 29.57 24.86 29.57 28.26 28C28.28 27.99 28.31 27.99 28.33 28.01C28.44 28.1 28.55 28.18 28.66 28.27C28.7 28.3 28.7 28.36 28.65 28.38C28.13 28.69 27.58 28.94 27.01 29.16C26.97 29.17 26.96 29.22 26.97 29.25C27.29 29.86 27.65 30.44 28.04 30.99C28.07 31 28.1 31.01 28.13 31C29.85 30.47 31.58 29.67 33.38 28.35C33.4 28.34 33.41 28.32 33.41 28.3C33.85 23.77 32.68 19.84 30.31 16.35C30.3 16.34 30.29 16.33 30.27 16.33ZM19.52 25.91C18.49 25.91 17.63 24.96 17.63 23.79C17.63 22.62 18.47 21.67 19.52 21.67C20.58 21.67 21.42 22.63 21.41 23.79C21.41 24.96 20.57 25.91 19.52 25.91ZM26.49 25.91C25.46 25.91 24.6 24.96 24.6 23.79C24.6 22.62 25.44 21.67 26.49 21.67C27.55 21.67 28.39 22.63 28.38 23.79C28.38 24.96 27.55 25.91 26.49 25.91Z" fill="#ECEDEE"/>
</svg>
