<svg width="734" height="744" viewBox="0 0 734 744" fill="none" xmlns="http://www.w3.org/2000/svg">
<g style="mix-blend-mode:overlay">
<path d="M718.806 386.22C709.112 398.155 693.554 403.75 676.123 408.385C672.444 409.364 668.682 410.299 664.882 411.243C650.789 414.747 636.172 418.381 623.328 424.827C606.934 433.055 593.334 445.896 587.046 468.895C580.779 491.821 581.805 524.746 594.355 573.117C606.846 621.257 603.068 658.243 589.091 685.162C575.119 712.073 550.881 729.066 522.158 737.091C464.648 753.16 389.353 733.208 343.485 685.112C280.758 619.34 207.889 593.899 145.708 572.188C136.249 568.886 127.036 565.669 118.145 562.41C84.4314 550.054 55.4042 537.118 34.7884 516.659C14.225 496.252 1.94482 468.267 1.94482 425.603C1.94482 340.454 64.6101 294.909 138.987 248.29C145.23 244.377 151.555 240.457 157.929 236.506C227.354 193.475 302.731 146.755 343.655 65.093C365.837 20.8287 413.837 -4.14861 463.604 2.94185C513.33 10.0266 565.028 49.1796 594.379 133.623C622.414 214.282 664.326 260.417 694.646 293.791C696.245 295.551 697.811 297.276 699.342 298.968C714.658 315.9 726.214 329.443 730.616 342.901C732.802 349.585 733.216 356.24 731.423 363.285C729.626 370.346 725.597 377.858 718.806 386.22Z" stroke="white" stroke-width="2"/>
</g>
</svg>
