<svg width="46" height="46" viewBox="0 0 46 46" fill="none" xmlns="http://www.w3.org/2000/svg">
<path d="M18.7882 22.5983C18.7882 20.5217 20.4707 18.8378 22.5467 18.8378C24.6226 18.8378 26.306 20.5217 26.306 22.5983C26.306 24.6748 24.6226 26.3587 22.5467 26.3587C20.4707 26.3587 18.7882 24.6748 18.7882 22.5983ZM16.756 22.5983C16.756 25.7974 19.3485 28.3906 22.5467 28.3906C25.7449 28.3906 28.3373 25.7974 28.3373 22.5983C28.3373 19.3991 25.7449 16.8059 22.5467 16.8059C19.3485 16.8059 16.756 19.3991 16.756 22.5983ZM27.2133 16.5762C27.2132 16.844 27.2925 17.1057 27.4411 17.3284C27.5897 17.551 27.801 17.7246 28.0482 17.8272C28.2954 17.9297 28.5675 17.9567 28.8301 17.9045C29.0926 17.8524 29.3338 17.7236 29.5231 17.5343C29.7124 17.3451 29.8414 17.104 29.8937 16.8414C29.946 16.5788 29.9194 16.3067 29.817 16.0593C29.7147 15.8119 29.5413 15.6004 29.3189 15.4516C29.0964 15.3027 28.8348 15.2232 28.5671 15.2231H28.5666C28.2078 15.2233 27.8638 15.3659 27.6101 15.6196C27.3563 15.8733 27.2136 16.2174 27.2133 16.5762ZM17.9907 31.7802C16.8912 31.7301 16.2936 31.5469 15.8965 31.3922C15.37 31.1871 14.9943 30.9429 14.5994 30.5484C14.2044 30.1539 13.9599 29.7785 13.7558 29.2518C13.601 28.8547 13.4179 28.2568 13.3679 27.157C13.3132 25.9679 13.3023 25.6108 13.3023 22.5983C13.3023 19.5859 13.3141 19.2298 13.3679 18.0397C13.418 16.9399 13.6025 16.3431 13.7558 15.9449C13.9608 15.4182 14.2049 15.0425 14.5994 14.6474C14.9938 14.2523 15.3691 14.0077 15.8965 13.8036C16.2934 13.6488 16.8912 13.4656 17.9907 13.4156C19.1794 13.3609 19.5365 13.35 22.5467 13.35C25.5568 13.35 25.9143 13.3618 27.104 13.4156C28.2035 13.4657 28.8001 13.6502 29.1982 13.8036C29.7247 14.0077 30.1004 14.2528 30.4953 14.6474C30.8903 15.0419 31.1339 15.4182 31.3389 15.9449C31.4937 16.342 31.6768 16.9399 31.7268 18.0397C31.7815 19.2298 31.7924 19.5859 31.7924 22.5983C31.7924 25.6108 31.7815 25.9669 31.7268 27.157C31.6767 28.2568 31.4927 28.8545 31.3389 29.2518C31.1339 29.7785 30.8898 30.1542 30.4953 30.5484C30.1009 30.9426 29.7247 31.1871 29.1982 31.3922C28.8012 31.547 28.2035 31.7302 27.104 31.7802C25.9153 31.8349 25.5582 31.8458 22.5467 31.8458C19.5351 31.8458 19.179 31.8349 17.9907 31.7802ZM17.8973 11.3862C16.6968 11.4409 15.8765 11.6313 15.1601 11.9101C14.4181 12.1981 13.79 12.5844 13.1624 13.2113C12.5347 13.8381 12.1495 14.4674 11.8616 15.2095C11.5829 15.9266 11.3925 16.7467 11.3378 17.9476C11.2823 19.1503 11.2695 19.5349 11.2695 22.5983C11.2695 25.6617 11.2823 26.0462 11.3378 27.2489C11.3925 28.4499 11.5829 29.2699 11.8616 29.987C12.1495 30.7287 12.5348 31.3587 13.1624 31.9853C13.7899 32.6118 14.4181 32.9976 15.1601 33.2864C15.8778 33.5652 16.6968 33.7556 17.8973 33.8103C19.1004 33.865 19.4842 33.8786 22.5467 33.8786C25.6092 33.8786 25.9936 33.8659 27.196 33.8103C28.3966 33.7556 29.2164 33.5652 29.9333 33.2864C30.6748 32.9976 31.3033 32.6121 31.931 31.9853C32.5586 31.3584 32.943 30.7287 33.2317 29.987C33.5105 29.2699 33.7017 28.4498 33.7555 27.2489C33.8102 26.0453 33.8229 25.6617 33.8229 22.5983C33.8229 19.5349 33.8102 19.1503 33.7555 17.9476C33.7008 16.7466 33.5105 15.9261 33.2317 15.2095C32.943 14.4678 32.5576 13.8391 31.931 13.2113C31.3043 12.5834 30.6748 12.1981 29.9342 11.9101C29.2164 11.6313 28.3965 11.44 27.1969 11.3862C25.9945 11.3315 25.6101 11.3179 22.5476 11.3179C19.4851 11.3179 19.1004 11.3306 17.8973 11.3862Z" fill="#F4F4F4"/>
</svg>
