<svg width="24" height="24" viewBox="0 0 24 24" fill="none" xmlns="http://www.w3.org/2000/svg">
<path d="M9.18496 12.2804C9.18496 10.572 10.5691 9.18668 12.277 9.18668C13.985 9.18668 15.3699 10.572 15.3699 12.2804C15.3699 13.9888 13.985 15.3741 12.277 15.3741C10.5691 15.3741 9.18496 13.9888 9.18496 12.2804ZM7.51305 12.2804C7.51305 14.9123 9.64588 17.0458 12.277 17.0458C14.9082 17.0458 17.041 14.9123 17.041 12.2804C17.041 9.64847 14.9082 7.51502 12.277 7.51502C9.64588 7.51502 7.51305 9.64847 7.51305 12.2804ZM16.1163 7.32607C16.1162 7.54633 16.1814 7.76167 16.3037 7.94486C16.4259 8.12804 16.5998 8.27085 16.8032 8.35522C17.0066 8.43959 17.2304 8.46174 17.4464 8.41885C17.6624 8.37597 17.8608 8.26998 18.0166 8.1143C18.1723 7.95861 18.2784 7.76022 18.3215 7.54422C18.3645 7.32821 18.3426 7.10428 18.2584 6.90075C18.1742 6.69723 18.0316 6.52324 17.8485 6.4008C17.6655 6.27836 17.4503 6.21296 17.2301 6.21287H17.2296C16.9345 6.21301 16.6514 6.33032 16.4427 6.53904C16.234 6.74777 16.1166 7.03083 16.1163 7.32607ZM8.52884 19.8344C7.6243 19.7932 7.13266 19.6425 6.80594 19.5152C6.37278 19.3465 6.06372 19.1456 5.73878 18.821C5.41383 18.4964 5.21269 18.1875 5.0448 17.7543C4.91744 17.4276 4.76677 16.9357 4.72565 16.0309C4.68067 15.0526 4.67169 14.7588 4.67169 12.2805C4.67169 9.80215 4.68141 9.50912 4.72565 8.53007C4.76684 7.62527 4.91863 7.1343 5.0448 6.80667C5.21344 6.37338 5.41428 6.06424 5.73878 5.7392C6.06327 5.41416 6.37204 5.21296 6.80594 5.04503C7.13251 4.91763 7.6243 4.76691 8.52884 4.72578C9.50679 4.68079 9.80056 4.67181 12.277 4.67181C14.7535 4.67181 15.0476 4.68153 16.0263 4.72578C16.9309 4.76699 17.4217 4.91881 17.7493 5.04503C18.1824 5.21296 18.4915 5.41461 18.8164 5.7392C19.1414 6.06379 19.3418 6.37338 19.5104 6.80667C19.6378 7.13334 19.7884 7.62527 19.8295 8.53007C19.8745 9.50912 19.8835 9.80215 19.8835 12.2805C19.8835 14.7588 19.8745 15.0518 19.8295 16.0309C19.7883 16.9357 19.6369 17.4274 19.5104 17.7543C19.3418 18.1875 19.1409 18.4967 18.8164 18.821C18.4919 19.1453 18.1824 19.3465 17.7493 19.5152C17.4227 19.6426 16.9309 19.7933 16.0263 19.8344C15.0484 19.8794 14.7546 19.8884 12.277 19.8884C9.79944 19.8884 9.50649 19.8794 8.52884 19.8344ZM8.45202 3.0562C7.46436 3.10119 6.78946 3.25785 6.20006 3.48726C5.58967 3.72417 5.07293 4.042 4.55657 4.55769C4.04021 5.07339 3.72329 5.59108 3.48645 6.20166C3.2571 6.7916 3.10049 7.46632 3.05551 8.45427C3.00979 9.44378 2.99933 9.76013 2.99933 12.2804C2.99933 14.8006 3.00979 15.117 3.05551 16.1065C3.10049 17.0945 3.2571 17.7692 3.48645 18.3591C3.72329 18.9693 4.04029 19.4876 4.55657 20.0031C5.07286 20.5186 5.58967 20.8359 6.20006 21.0735C6.79057 21.3029 7.46436 21.4596 8.45202 21.5046C9.44177 21.5496 9.75751 21.5608 12.277 21.5608C14.7966 21.5608 15.1128 21.5503 16.1021 21.5046C17.0898 21.4596 17.7642 21.3029 18.354 21.0735C18.964 20.8359 19.4811 20.5188 19.9975 20.0031C20.5139 19.4874 20.8301 18.9693 21.0676 18.3591C21.297 17.7692 21.4543 17.0945 21.4986 16.1065C21.5435 15.1163 21.554 14.8006 21.554 12.2804C21.554 9.76013 21.5435 9.44378 21.4986 8.45427C21.4536 7.46624 21.297 6.79122 21.0676 6.20166C20.8301 5.59146 20.513 5.0742 19.9975 4.55769C19.482 4.04119 18.964 3.72417 18.3548 3.48726C17.7642 3.25785 17.0897 3.10045 16.1028 3.0562C15.1136 3.01121 14.7973 3 12.2778 3C9.75825 3 9.44177 3.01047 8.45202 3.0562Z" fill="#646464"/>
</svg>
