<svg width="24" height="24" viewBox="0 0 24 24" fill="none" xmlns="http://www.w3.org/2000/svg">
<path d="M7.2825 21.0482V8.87039H3.23837V21.0482H7.28292H7.2825ZM5.26128 7.20801C6.67125 7.20801 7.54906 6.27289 7.54906 5.10427C7.52266 3.90901 6.67125 3 5.28809 3C3.90398 3 3 3.90901 3 5.10416C3 6.27279 3.87749 7.2079 5.23478 7.2079H5.26096L5.26128 7.20801ZM9.52097 21.0482H13.5648V14.2483C13.5648 13.8848 13.5912 13.5204 13.698 13.2608C13.9902 12.5333 14.6556 11.7802 15.7731 11.7802C17.236 11.7802 17.8216 12.8969 17.8216 14.5341V21.0482H21.8653V14.0658C21.8653 10.3255 19.8705 8.58489 17.2098 8.58489C15.0285 8.58489 14.0704 9.80519 13.5382 10.6363H13.5651V8.87081H9.52118C9.57397 10.0132 9.52087 21.0486 9.52087 21.0486L9.52097 21.0482Z" fill="#646464"/>
</svg>
