<svg width="46" height="46" viewBox="0 0 46 46" fill="none" xmlns="http://www.w3.org/2000/svg">
<path d="M17.5177 31.6756V19.4978H13.4736V31.6756H17.5181H17.5177ZM15.4965 17.8354C16.9065 17.8354 17.7843 16.9003 17.7843 15.7317C17.7579 14.5365 16.9065 13.6274 15.5233 13.6274C14.1392 13.6274 13.2352 14.5365 13.2352 15.7316C13.2352 16.9002 14.1127 17.8353 15.47 17.8353H15.4962L15.4965 17.8354ZM19.7562 31.6756H23.8V24.8757C23.8 24.5123 23.8264 24.1478 23.9332 23.8882C24.2254 23.1607 24.8908 22.4077 26.0083 22.4077C27.4713 22.4077 28.0568 23.5243 28.0568 25.1616V31.6756H32.1005V24.6933C32.1005 20.9529 30.1057 19.2123 27.4451 19.2123C25.2637 19.2123 24.3057 20.4326 23.7734 21.2638H23.8003V19.4983H19.7564C19.8092 20.6407 19.7561 31.6761 19.7561 31.6761L19.7562 31.6756Z" fill="#F4F4F4"/>
</svg>
