<svg width="46" height="46" viewBox="0 0 46 46" fill="none" xmlns="http://www.w3.org/2000/svg">
<path d="M17.4363 31.6756V19.4978H13.3922V31.6756H17.4367H17.4363ZM15.4151 17.8354C16.8251 17.8354 17.7029 16.9003 17.7029 15.7317C17.6765 14.5365 16.8251 13.6274 15.4419 13.6274C14.0578 13.6274 13.1538 14.5365 13.1538 15.7316C13.1538 16.9002 14.0313 17.8353 15.3886 17.8353H15.4148L15.4151 17.8354ZM19.6748 31.6756H23.7186V24.8757C23.7186 24.5123 23.745 24.1478 23.8518 23.8882C24.144 23.1607 24.8094 22.4077 25.9269 22.4077C27.3898 22.4077 27.9754 23.5243 27.9754 25.1616V31.6756H32.0191V24.6933C32.0191 20.9529 30.0243 19.2123 27.3637 19.2123C25.1823 19.2123 24.2243 20.4326 23.692 21.2638H23.7189V19.4983H19.675C19.7278 20.6407 19.6747 31.6761 19.6747 31.6761L19.6748 31.6756Z" fill="#ECEDEE"/>
</svg>
