<svg width="20" height="29" viewBox="0 0 20 29" fill="none" xmlns="http://www.w3.org/2000/svg">
<path fill-rule="evenodd" clip-rule="evenodd" d="M16 28H4C2.3425 28 1 26.6575 1 25V4C1 2.3425 2.3425 1 4 1H16C17.6575 1 19 2.3425 19 4V25C19 26.6575 17.6575 28 16 28Z" stroke="#480FCB" stroke-width="2" stroke-linecap="round" stroke-linejoin="round"/>
<path opacity="0.6" d="M9.9985 22.375C9.7915 22.375 9.6235 22.543 9.625 22.75C9.625 22.957 9.793 23.125 10 23.125C10.207 23.125 10.375 22.957 10.375 22.75C10.375 22.543 10.207 22.375 9.9985 22.375" stroke="#480FCB" stroke-width="2" stroke-linecap="round" stroke-linejoin="round"/>
<path opacity="0.6" d="M8.125 5.5H11.875" stroke="#480FCB" stroke-width="2" stroke-linecap="round" stroke-linejoin="round"/>
</svg>
