<svg width="46" height="46" viewBox="0 0 46 46" fill="none" xmlns="http://www.w3.org/2000/svg">
<path d="M33.811 15.4035C33.0667 15.7242 32.2841 15.9474 31.4827 16.0678C31.8574 16.0035 32.4087 15.3285 32.6281 15.0553C32.9615 14.6432 33.2156 14.1727 33.3775 13.6678C33.3775 13.6303 33.4149 13.5767 33.3775 13.5499C33.3586 13.5396 33.3374 13.5342 33.3159 13.5342C33.2944 13.5342 33.2732 13.5396 33.2544 13.5499C32.3842 14.0216 31.458 14.3816 30.4979 14.6214C30.4644 14.6316 30.4288 14.6325 30.3948 14.624C30.3609 14.6155 30.3299 14.5979 30.3052 14.5732C30.2304 14.4841 30.15 14.4 30.0643 14.3214C29.6727 13.9702 29.2284 13.6827 28.7476 13.4696C28.0987 13.2031 27.3977 13.0877 26.6976 13.1321C26.0184 13.175 25.3552 13.3574 24.7493 13.6678C24.1527 13.9951 23.6284 14.4397 23.2078 14.9749C22.7655 15.5259 22.4461 16.1652 22.2712 16.85C22.1269 17.5013 22.1106 18.1745 22.223 18.8321C22.223 18.9446 22.223 18.9607 22.1267 18.9446C18.3104 18.3821 15.1792 17.0267 12.6207 14.1178C12.5083 13.9892 12.4495 13.9892 12.3585 14.1178C11.2452 15.8107 11.7858 18.4893 13.1774 19.8125C13.3647 19.9893 13.5574 20.1607 13.7608 20.3214C13.1227 20.2761 12.5003 20.103 11.9303 19.8125C11.8232 19.7428 11.7643 19.7803 11.759 19.9089C11.7438 20.0872 11.7438 20.2664 11.759 20.4446C11.8707 21.2989 12.207 22.1081 12.7337 22.7896C13.2603 23.4711 13.9583 24.0003 14.7564 24.3232C14.9509 24.4066 15.1536 24.4695 15.3612 24.5107C14.7705 24.6271 14.1647 24.6452 13.5681 24.5643C13.4397 24.5375 13.3915 24.6072 13.4397 24.7304C14.2265 26.8733 15.9339 27.5268 17.1864 27.8911C17.3576 27.9179 17.5289 27.9179 17.7216 27.9608C17.7216 27.9608 17.7216 27.9608 17.6895 27.9929C17.3202 28.6679 15.8268 29.1233 15.1417 29.359C13.8912 29.8086 12.558 29.9804 11.2345 29.8626C11.0257 29.8304 10.9775 29.8358 10.924 29.8626C10.8705 29.8894 10.924 29.9483 10.9829 30.0019C11.2505 30.1787 11.5181 30.334 11.7965 30.484C12.625 30.9363 13.501 31.2957 14.4084 31.5555C19.1079 32.8519 24.3961 31.8983 27.9233 28.3893C30.6959 25.6358 31.67 21.8375 31.67 18.0339C31.67 17.8893 31.8467 17.8035 31.9484 17.7285C32.6498 17.1815 33.2682 16.5355 33.7843 15.8107C33.8736 15.7026 33.9194 15.5651 33.9127 15.4249C33.9127 15.3446 33.9127 15.3607 33.811 15.4035Z" fill="#F4F4F4"/>
</svg>
