<svg width="24" height="24" viewBox="0 0 24 24" fill="none" xmlns="http://www.w3.org/2000/svg">
<path d="M10.8 0C7.93566 0 5.18864 1.13785 3.16325 3.16325C1.13785 5.18864 0 7.93566 0 10.8C0 13.6643 1.13785 16.4114 3.16325 18.4368C5.18864 20.4621 7.93566 21.6 10.8 21.6C13.6643 21.6 16.4114 20.4621 18.4368 18.4368C20.4621 16.4114 21.6 13.6643 21.6 10.8C21.6 7.93566 20.4621 5.18864 18.4368 3.16325C16.4114 1.13785 13.6643 0 10.8 0ZM14.952 14.34C14.952 16.104 13.992 18.3 10.08 19.98C10.44 14.976 7.056 15.552 6.24 13.98C6.31432 13.3297 6.55113 12.7085 6.92861 12.1737C7.30609 11.639 7.8121 11.2078 8.4 10.92C6.5378 10.6006 4.80111 9.76964 3.384 8.52C3.444 9.084 3.7188 9.6048 4.152 9.972C3.21349 9.61824 2.40259 8.99125 1.824 8.172C2.39613 6.28368 3.54038 4.61955 5.09877 3.40938C6.65716 2.19921 8.55282 1.50269 10.524 1.416C9.516 3.072 8.724 6.372 10.524 8.1C8.676 8.4 7.512 6 6.492 6.948C5.136 8.22 6.888 9.96 10.596 10.644C14.544 11.352 14.988 12.54 14.952 14.34ZM16.56 9.54C16.176 8.208 17.304 6.864 18.588 5.772C19.3899 6.92786 19.9003 8.2605 20.0758 9.65628C20.2514 11.0521 20.0867 12.4696 19.596 13.788C18.672 11.52 16.992 11.004 16.56 9.504V9.54Z" fill="#646464"/>
</svg>
